<svg width="1200" height="900" viewBox="0 0 1200 900" fill="none" xmlns="http://www.w3.org/2000/svg">
  <rect width="1200" height="900" rx="48" fill="#091624"/>
  <circle cx="330" cy="240" r="220" fill="url(#paint0_radial)"/>
  <circle cx="890" cy="640" r="280" fill="url(#paint1_radial)" fill-opacity="0.7"/>
  <rect x="170" y="120" width="860" height="660" rx="42" fill="url(#paint2_linear)" stroke="#FFFFFF" stroke-opacity="0.15"/>
  <path d="M600 248C520.817 248 456 312.817 456 392V402C456 480.091 496.426 550.598 556.089 588.86C576.372 601.845 600.323 608 624 608C647.677 608 671.628 601.845 691.911 588.86C751.574 550.598 792 480.091 792 402V392C792 312.817 727.183 248 648 248H600Z" fill="#0B2236" stroke="#9BE2B0" stroke-width="8"/>
  <circle cx="552" cy="376" r="24" fill="#76E4F7"/>
  <circle cx="696" cy="376" r="24" fill="#76E4F7"/>
  <path d="M542 486C571.333 531.333 674.667 531.333 706 486" stroke="#FF9F5A" stroke-width="14" stroke-linecap="round"/>
  <path d="M414 248L486 320" stroke="#76E4F7" stroke-width="10" stroke-linecap="round"/>
  <path d="M834 248L762 320" stroke="#76E4F7" stroke-width="10" stroke-linecap="round"/>
  <path d="M402 620L520 564" stroke="#9BE2B0" stroke-width="8" stroke-linecap="round"/>
  <path d="M846 620L728 564" stroke="#9BE2B0" stroke-width="8" stroke-linecap="round"/>
  <rect x="258" y="664" width="292" height="78" rx="24" fill="#07111F" stroke="#76E4F7" stroke-opacity="0.45"/>
  <text x="302" y="714" fill="#F6F1E8" font-family="Arial, sans-serif" font-size="40" letter-spacing="4">REAL-TIME CV</text>
  <rect x="646" y="664" width="296" height="78" rx="24" fill="#07111F" stroke="#FF9F5A" stroke-opacity="0.45"/>
  <text x="689" y="714" fill="#F6F1E8" font-family="Arial, sans-serif" font-size="40" letter-spacing="4">EMOTION AI</text>
  <defs>
    <radialGradient id="paint0_radial" cx="0" cy="0" r="1" gradientUnits="userSpaceOnUse" gradientTransform="translate(330 240) rotate(90) scale(220)">
      <stop stop-color="#76E4F7" stop-opacity="0.6"/>
      <stop offset="1" stop-color="#76E4F7" stop-opacity="0"/>
    </radialGradient>
    <radialGradient id="paint1_radial" cx="0" cy="0" r="1" gradientUnits="userSpaceOnUse" gradientTransform="translate(890 640) rotate(90) scale(280)">
      <stop stop-color="#FF9F5A" stop-opacity="0.55"/>
      <stop offset="1" stop-color="#FF9F5A" stop-opacity="0"/>
    </radialGradient>
    <linearGradient id="paint2_linear" x1="170" y1="120" x2="1030" y2="780" gradientUnits="userSpaceOnUse">
      <stop stop-color="#0D2135"/>
      <stop offset="1" stop-color="#091523"/>
    </linearGradient>
  </defs>
</svg>
