<svg width="1200" height="900" viewBox="0 0 1200 900" fill="none" xmlns="http://www.w3.org/2000/svg">
  <rect width="1200" height="900" rx="48" fill="#08121D"/>
  <circle cx="1002" cy="182" r="210" fill="url(#paint0_radial)"/>
  <circle cx="208" cy="712" r="230" fill="url(#paint1_radial)"/>
  <rect x="148" y="112" width="904" height="676" rx="42" fill="#0F1C2A" stroke="#FFFFFF" stroke-opacity="0.14"/>
  <rect x="232" y="206" width="736" height="468" rx="34" fill="#09111B" stroke="#9BE2B0" stroke-opacity="0.35" stroke-width="4"/>
  <path d="M232 338H968" stroke="#FFFFFF" stroke-opacity="0.08" stroke-width="2"/>
  <path d="M232 470H968" stroke="#FFFFFF" stroke-opacity="0.08" stroke-width="2"/>
  <path d="M232 602H968" stroke="#FFFFFF" stroke-opacity="0.08" stroke-width="2"/>
  <path d="M416 206V674" stroke="#FFFFFF" stroke-opacity="0.08" stroke-width="2"/>
  <path d="M600 206V674" stroke="#FFFFFF" stroke-opacity="0.08" stroke-width="2"/>
  <path d="M784 206V674" stroke="#FFFFFF" stroke-opacity="0.08" stroke-width="2"/>
  <rect x="476" y="320" width="244" height="242" rx="36" stroke="#FF9F5A" stroke-width="14" stroke-dasharray="18 12"/>
  <circle cx="598" cy="442" r="72" fill="url(#paint2_radial)"/>
  <path d="M598 298V252" stroke="#76E4F7" stroke-width="10" stroke-linecap="round"/>
  <path d="M598 630V586" stroke="#76E4F7" stroke-width="10" stroke-linecap="round"/>
  <path d="M752 442H796" stroke="#76E4F7" stroke-width="10" stroke-linecap="round"/>
  <path d="M400 442H446" stroke="#76E4F7" stroke-width="10" stroke-linecap="round"/>
  <rect x="262" y="700" width="260" height="64" rx="22" fill="#07111F" stroke="#9BE2B0" stroke-opacity="0.45"/>
  <text x="295" y="742" fill="#F6F1E8" font-family="Arial, sans-serif" font-size="32" letter-spacing="4">HEALTHCARE AI</text>
  <rect x="584" y="700" width="354" height="64" rx="22" fill="#07111F" stroke="#FF9F5A" stroke-opacity="0.45"/>
  <text x="621" y="742" fill="#F6F1E8" font-family="Arial, sans-serif" font-size="32" letter-spacing="4">DETECTION PIPELINE</text>
  <defs>
    <radialGradient id="paint0_radial" cx="0" cy="0" r="1" gradientUnits="userSpaceOnUse" gradientTransform="translate(1002 182) rotate(90) scale(210)">
      <stop stop-color="#9BE2B0" stop-opacity="0.46"/>
      <stop offset="1" stop-color="#9BE2B0" stop-opacity="0"/>
    </radialGradient>
    <radialGradient id="paint1_radial" cx="0" cy="0" r="1" gradientUnits="userSpaceOnUse" gradientTransform="translate(208 712) rotate(90) scale(230)">
      <stop stop-color="#76E4F7" stop-opacity="0.4"/>
      <stop offset="1" stop-color="#76E4F7" stop-opacity="0"/>
    </radialGradient>
    <radialGradient id="paint2_radial" cx="0" cy="0" r="1" gradientUnits="userSpaceOnUse" gradientTransform="translate(598 442) rotate(90) scale(72)">
      <stop stop-color="#FF9F5A"/>
      <stop offset="1" stop-color="#FF9F5A" stop-opacity="0.15"/>
    </radialGradient>
  </defs>
</svg>
